<mxfile host="app.diagrams.net" agent="Mozilla/5.0 (Windows NT 10.0; Win64; x64) AppleWebKit/537.36 (KHTML, like Gecko) Chrome/127.0.0.0 Safari/537.36" version="24.7.7">
  <diagram name="Sayfa -1" id="WX2jMY2qEzt07mCihYJ5">
    <mxGraphModel dx="2261" dy="780" grid="1" gridSize="10" guides="1" tooltips="1" connect="1" arrows="1" fold="1" page="1" pageScale="1" pageWidth="827" pageHeight="1169" math="0" shadow="0">
      <root>
        <mxCell id="0" />
        <mxCell id="1" parent="0" />
        <mxCell id="9qANduLwXeEZ5kH8iVx6-16" style="edgeStyle=orthogonalEdgeStyle;rounded=0;orthogonalLoop=1;jettySize=auto;html=1;exitX=0;exitY=0.25;exitDx=0;exitDy=0;entryX=1;entryY=1;entryDx=0;entryDy=0;" edge="1" parent="1" source="9qANduLwXeEZ5kH8iVx6-1" target="9qANduLwXeEZ5kH8iVx6-9">
          <mxGeometry relative="1" as="geometry" />
        </mxCell>
        <mxCell id="9qANduLwXeEZ5kH8iVx6-18" style="edgeStyle=orthogonalEdgeStyle;rounded=0;orthogonalLoop=1;jettySize=auto;html=1;exitX=0.75;exitY=0;exitDx=0;exitDy=0;" edge="1" parent="1" source="9qANduLwXeEZ5kH8iVx6-1" target="9qANduLwXeEZ5kH8iVx6-11">
          <mxGeometry relative="1" as="geometry" />
        </mxCell>
        <mxCell id="9qANduLwXeEZ5kH8iVx6-19" style="edgeStyle=orthogonalEdgeStyle;rounded=0;orthogonalLoop=1;jettySize=auto;html=1;exitX=1;exitY=0.25;exitDx=0;exitDy=0;entryX=0;entryY=1;entryDx=0;entryDy=0;" edge="1" parent="1" source="9qANduLwXeEZ5kH8iVx6-1" target="9qANduLwXeEZ5kH8iVx6-12">
          <mxGeometry relative="1" as="geometry" />
        </mxCell>
        <mxCell id="9qANduLwXeEZ5kH8iVx6-90" style="edgeStyle=orthogonalEdgeStyle;rounded=0;orthogonalLoop=1;jettySize=auto;html=1;exitX=1;exitY=0.75;exitDx=0;exitDy=0;entryX=0;entryY=0.5;entryDx=0;entryDy=0;fillColor=#fff2cc;strokeColor=#d6b656;" edge="1" parent="1" source="9qANduLwXeEZ5kH8iVx6-1" target="9qANduLwXeEZ5kH8iVx6-89">
          <mxGeometry relative="1" as="geometry" />
        </mxCell>
        <mxCell id="9qANduLwXeEZ5kH8iVx6-96" style="edgeStyle=orthogonalEdgeStyle;rounded=0;orthogonalLoop=1;jettySize=auto;html=1;exitX=1;exitY=1;exitDx=0;exitDy=0;fillColor=#d5e8d4;strokeColor=#82b366;entryX=0;entryY=0.25;entryDx=0;entryDy=0;" edge="1" parent="1" source="9qANduLwXeEZ5kH8iVx6-1" target="9qANduLwXeEZ5kH8iVx6-94">
          <mxGeometry relative="1" as="geometry">
            <mxPoint x="180" y="500" as="targetPoint" />
            <Array as="points">
              <mxPoint x="35" y="408" />
              <mxPoint x="140" y="408" />
              <mxPoint x="140" y="470" />
              <mxPoint x="180" y="470" />
              <mxPoint x="180" y="478" />
            </Array>
          </mxGeometry>
        </mxCell>
        <mxCell id="9qANduLwXeEZ5kH8iVx6-1" value="Ogrenciler" style="rounded=0;whiteSpace=wrap;html=1;fillColor=#fa6800;fontColor=#000000;strokeColor=#C73500;" vertex="1" parent="1">
          <mxGeometry x="-115" y="220" width="150" height="90" as="geometry" />
        </mxCell>
        <mxCell id="9qANduLwXeEZ5kH8iVx6-73" style="edgeStyle=orthogonalEdgeStyle;rounded=0;orthogonalLoop=1;jettySize=auto;html=1;exitX=1;exitY=0;exitDx=0;exitDy=0;entryX=0;entryY=1;entryDx=0;entryDy=0;" edge="1" parent="1" source="9qANduLwXeEZ5kH8iVx6-3" target="9qANduLwXeEZ5kH8iVx6-69">
          <mxGeometry relative="1" as="geometry" />
        </mxCell>
        <mxCell id="9qANduLwXeEZ5kH8iVx6-76" style="edgeStyle=orthogonalEdgeStyle;rounded=0;orthogonalLoop=1;jettySize=auto;html=1;exitX=0.75;exitY=1;exitDx=0;exitDy=0;" edge="1" parent="1" source="9qANduLwXeEZ5kH8iVx6-3" target="9qANduLwXeEZ5kH8iVx6-72">
          <mxGeometry relative="1" as="geometry" />
        </mxCell>
        <mxCell id="9qANduLwXeEZ5kH8iVx6-78" style="edgeStyle=orthogonalEdgeStyle;rounded=0;orthogonalLoop=1;jettySize=auto;html=1;exitX=0.5;exitY=1;exitDx=0;exitDy=0;entryX=1;entryY=0;entryDx=0;entryDy=0;" edge="1" parent="1" source="9qANduLwXeEZ5kH8iVx6-3" target="9qANduLwXeEZ5kH8iVx6-77">
          <mxGeometry relative="1" as="geometry" />
        </mxCell>
        <mxCell id="9qANduLwXeEZ5kH8iVx6-3" value="Dersler" style="rounded=0;whiteSpace=wrap;html=1;fillColor=#fa6800;fontColor=#000000;strokeColor=#C73500;" vertex="1" parent="1">
          <mxGeometry x="505" y="615" width="150" height="80" as="geometry" />
        </mxCell>
        <mxCell id="9qANduLwXeEZ5kH8iVx6-5" value="Kay覺tTarihi" style="ellipse;whiteSpace=wrap;html=1;fillColor=#a0522d;fontColor=#ffffff;strokeColor=#6D1F00;" vertex="1" parent="1">
          <mxGeometry x="-325" y="340" width="100" height="60" as="geometry" />
        </mxCell>
        <mxCell id="9qANduLwXeEZ5kH8iVx6-8" value="Cinsiyet" style="ellipse;whiteSpace=wrap;html=1;fillColor=#a0522d;fontColor=#ffffff;strokeColor=#6D1F00;" vertex="1" parent="1">
          <mxGeometry x="-355" y="250" width="100" height="60" as="geometry" />
        </mxCell>
        <mxCell id="9qANduLwXeEZ5kH8iVx6-9" value="D.T" style="ellipse;whiteSpace=wrap;html=1;fillColor=#a0522d;fontColor=#ffffff;strokeColor=#6D1F00;" vertex="1" parent="1">
          <mxGeometry x="-355" y="160" width="100" height="60" as="geometry" />
        </mxCell>
        <mxCell id="9qANduLwXeEZ5kH8iVx6-10" value="StudentID" style="ellipse;whiteSpace=wrap;html=1;fillColor=#a0522d;fontColor=#ffffff;strokeColor=#6D1F00;" vertex="1" parent="1">
          <mxGeometry x="-265" y="100" width="100" height="60" as="geometry" />
        </mxCell>
        <mxCell id="9qANduLwXeEZ5kH8iVx6-11" value="Ad覺" style="ellipse;whiteSpace=wrap;html=1;fillColor=#a0522d;fontColor=#ffffff;strokeColor=#6D1F00;" vertex="1" parent="1">
          <mxGeometry x="-145" y="80" width="100" height="60" as="geometry" />
        </mxCell>
        <mxCell id="9qANduLwXeEZ5kH8iVx6-12" value="Soyad覺" style="ellipse;whiteSpace=wrap;html=1;fillColor=#a0522d;fontColor=#ffffff;strokeColor=#6D1F00;" vertex="1" parent="1">
          <mxGeometry x="15" y="90" width="100" height="60" as="geometry" />
        </mxCell>
        <mxCell id="9qANduLwXeEZ5kH8iVx6-84" style="edgeStyle=orthogonalEdgeStyle;rounded=0;orthogonalLoop=1;jettySize=auto;html=1;exitX=0.25;exitY=1;exitDx=0;exitDy=0;" edge="1" parent="1" source="9qANduLwXeEZ5kH8iVx6-13" target="9qANduLwXeEZ5kH8iVx6-80">
          <mxGeometry relative="1" as="geometry" />
        </mxCell>
        <mxCell id="9qANduLwXeEZ5kH8iVx6-86" style="edgeStyle=orthogonalEdgeStyle;rounded=0;orthogonalLoop=1;jettySize=auto;html=1;exitX=1;exitY=1;exitDx=0;exitDy=0;entryX=0;entryY=0;entryDx=0;entryDy=0;" edge="1" parent="1" source="9qANduLwXeEZ5kH8iVx6-13" target="9qANduLwXeEZ5kH8iVx6-82">
          <mxGeometry relative="1" as="geometry" />
        </mxCell>
        <mxCell id="9qANduLwXeEZ5kH8iVx6-88" style="edgeStyle=orthogonalEdgeStyle;rounded=0;orthogonalLoop=1;jettySize=auto;html=1;exitX=0.5;exitY=1;exitDx=0;exitDy=0;entryX=0.5;entryY=0;entryDx=0;entryDy=0;" edge="1" parent="1" source="9qANduLwXeEZ5kH8iVx6-13" target="9qANduLwXeEZ5kH8iVx6-87">
          <mxGeometry relative="1" as="geometry" />
        </mxCell>
        <mxCell id="9qANduLwXeEZ5kH8iVx6-123" style="edgeStyle=orthogonalEdgeStyle;rounded=0;orthogonalLoop=1;jettySize=auto;html=1;exitX=0.75;exitY=0;exitDx=0;exitDy=0;" edge="1" parent="1" source="9qANduLwXeEZ5kH8iVx6-13" target="9qANduLwXeEZ5kH8iVx6-94">
          <mxGeometry relative="1" as="geometry">
            <Array as="points">
              <mxPoint x="219" y="780" />
              <mxPoint x="260" y="780" />
              <mxPoint x="260" y="672" />
              <mxPoint x="275" y="672" />
            </Array>
          </mxGeometry>
        </mxCell>
        <mxCell id="9qANduLwXeEZ5kH8iVx6-126" value="M" style="edgeLabel;html=1;align=center;verticalAlign=middle;resizable=0;points=[];" vertex="1" connectable="0" parent="9qANduLwXeEZ5kH8iVx6-123">
          <mxGeometry x="-0.4043" relative="1" as="geometry">
            <mxPoint as="offset" />
          </mxGeometry>
        </mxCell>
        <mxCell id="9qANduLwXeEZ5kH8iVx6-13" value="Kay覺tlar" style="rounded=0;whiteSpace=wrap;html=1;fillColor=#fa6800;fontColor=#000000;strokeColor=#C73500;" vertex="1" parent="1">
          <mxGeometry x="106" y="820" width="150" height="80" as="geometry" />
        </mxCell>
        <mxCell id="9qANduLwXeEZ5kH8iVx6-14" style="edgeStyle=orthogonalEdgeStyle;rounded=0;orthogonalLoop=1;jettySize=auto;html=1;exitX=0;exitY=1;exitDx=0;exitDy=0;entryX=0.78;entryY=0.033;entryDx=0;entryDy=0;entryPerimeter=0;" edge="1" parent="1" source="9qANduLwXeEZ5kH8iVx6-1" target="9qANduLwXeEZ5kH8iVx6-5">
          <mxGeometry relative="1" as="geometry" />
        </mxCell>
        <mxCell id="9qANduLwXeEZ5kH8iVx6-15" style="edgeStyle=orthogonalEdgeStyle;rounded=0;orthogonalLoop=1;jettySize=auto;html=1;exitX=0;exitY=0.5;exitDx=0;exitDy=0;entryX=0.98;entryY=0.4;entryDx=0;entryDy=0;entryPerimeter=0;" edge="1" parent="1" source="9qANduLwXeEZ5kH8iVx6-1" target="9qANduLwXeEZ5kH8iVx6-8">
          <mxGeometry relative="1" as="geometry" />
        </mxCell>
        <mxCell id="9qANduLwXeEZ5kH8iVx6-17" style="edgeStyle=orthogonalEdgeStyle;rounded=0;orthogonalLoop=1;jettySize=auto;html=1;exitX=0.25;exitY=0;exitDx=0;exitDy=0;entryX=0.63;entryY=1;entryDx=0;entryDy=0;entryPerimeter=0;" edge="1" parent="1" source="9qANduLwXeEZ5kH8iVx6-1" target="9qANduLwXeEZ5kH8iVx6-10">
          <mxGeometry relative="1" as="geometry" />
        </mxCell>
        <mxCell id="9qANduLwXeEZ5kH8iVx6-20" style="edgeStyle=orthogonalEdgeStyle;rounded=0;orthogonalLoop=1;jettySize=auto;html=1;exitX=0;exitY=0.25;exitDx=0;exitDy=0;entryX=1;entryY=1;entryDx=0;entryDy=0;" edge="1" parent="1" source="9qANduLwXeEZ5kH8iVx6-23" target="9qANduLwXeEZ5kH8iVx6-26">
          <mxGeometry relative="1" as="geometry">
            <Array as="points">
              <mxPoint x="-245" y="633" />
              <mxPoint x="-245" y="550" />
              <mxPoint x="-360" y="550" />
            </Array>
          </mxGeometry>
        </mxCell>
        <mxCell id="9qANduLwXeEZ5kH8iVx6-21" style="edgeStyle=orthogonalEdgeStyle;rounded=0;orthogonalLoop=1;jettySize=auto;html=1;exitX=0;exitY=0.75;exitDx=0;exitDy=0;" edge="1" parent="1" source="9qANduLwXeEZ5kH8iVx6-23" target="9qANduLwXeEZ5kH8iVx6-28">
          <mxGeometry relative="1" as="geometry" />
        </mxCell>
        <mxCell id="9qANduLwXeEZ5kH8iVx6-47" style="edgeStyle=orthogonalEdgeStyle;rounded=0;orthogonalLoop=1;jettySize=auto;html=1;exitX=0.18;exitY=-0.022;exitDx=0;exitDy=0;exitPerimeter=0;" edge="1" parent="1" source="9qANduLwXeEZ5kH8iVx6-23" target="9qANduLwXeEZ5kH8iVx6-27">
          <mxGeometry relative="1" as="geometry">
            <Array as="points">
              <mxPoint x="-188" y="580" />
              <mxPoint x="-205" y="580" />
              <mxPoint x="-205" y="550" />
              <mxPoint x="-225" y="550" />
              <mxPoint x="-225" y="480" />
            </Array>
          </mxGeometry>
        </mxCell>
        <mxCell id="9qANduLwXeEZ5kH8iVx6-99" style="edgeStyle=orthogonalEdgeStyle;rounded=0;orthogonalLoop=1;jettySize=auto;html=1;exitX=0.5;exitY=0;exitDx=0;exitDy=0;entryX=0.039;entryY=0.369;entryDx=0;entryDy=0;entryPerimeter=0;fillColor=#f8cecc;strokeColor=#b85450;" edge="1" parent="1" source="9qANduLwXeEZ5kH8iVx6-23" target="9qANduLwXeEZ5kH8iVx6-100">
          <mxGeometry relative="1" as="geometry">
            <mxPoint x="-60" y="490" as="targetPoint" />
          </mxGeometry>
        </mxCell>
        <mxCell id="9qANduLwXeEZ5kH8iVx6-110" style="edgeStyle=orthogonalEdgeStyle;rounded=0;orthogonalLoop=1;jettySize=auto;html=1;exitX=1;exitY=0.5;exitDx=0;exitDy=0;entryX=0;entryY=0.5;entryDx=0;entryDy=0;fillColor=#d5e8d4;strokeColor=#82b366;" edge="1" parent="1" source="9qANduLwXeEZ5kH8iVx6-23" target="9qANduLwXeEZ5kH8iVx6-109">
          <mxGeometry relative="1" as="geometry" />
        </mxCell>
        <mxCell id="9qANduLwXeEZ5kH8iVx6-115" style="edgeStyle=orthogonalEdgeStyle;rounded=0;orthogonalLoop=1;jettySize=auto;html=1;exitX=1;exitY=0;exitDx=0;exitDy=0;fillColor=#fff2cc;strokeColor=#d6b656;entryX=0;entryY=0.75;entryDx=0;entryDy=0;" edge="1" parent="1" source="9qANduLwXeEZ5kH8iVx6-23" target="9qANduLwXeEZ5kH8iVx6-94">
          <mxGeometry relative="1" as="geometry">
            <mxPoint x="410" y="340" as="targetPoint" />
            <Array as="points">
              <mxPoint x="90" y="610" />
              <mxPoint x="90" y="490" />
              <mxPoint x="228" y="490" />
            </Array>
          </mxGeometry>
        </mxCell>
        <mxCell id="9qANduLwXeEZ5kH8iVx6-23" value="OgretimUyeleri" style="rounded=0;whiteSpace=wrap;html=1;fillColor=#fa6800;fontColor=#000000;strokeColor=#C73500;" vertex="1" parent="1">
          <mxGeometry x="-215" y="610" width="150" height="90" as="geometry" />
        </mxCell>
        <mxCell id="9qANduLwXeEZ5kH8iVx6-24" value="BolumID" style="ellipse;whiteSpace=wrap;html=1;fillColor=#a0522d;fontColor=#ffffff;strokeColor=#6D1F00;" vertex="1" parent="1">
          <mxGeometry x="-375" y="750" width="100" height="60" as="geometry" />
        </mxCell>
        <mxCell id="9qANduLwXeEZ5kH8iVx6-25" value="Soyad覺" style="ellipse;whiteSpace=wrap;html=1;fillColor=#a0522d;fontColor=#ffffff;strokeColor=#6D1F00;" vertex="1" parent="1">
          <mxGeometry x="-455" y="560" width="100" height="60" as="geometry" />
        </mxCell>
        <mxCell id="9qANduLwXeEZ5kH8iVx6-26" value="OuID" style="ellipse;whiteSpace=wrap;html=1;fillColor=#a0522d;fontColor=#ffffff;strokeColor=#6D1F00;" vertex="1" parent="1">
          <mxGeometry x="-445" y="480" width="100" height="60" as="geometry" />
        </mxCell>
        <mxCell id="9qANduLwXeEZ5kH8iVx6-27" value="Ad覺" style="ellipse;whiteSpace=wrap;html=1;fillColor=#a0522d;fontColor=#ffffff;strokeColor=#6D1F00;" vertex="1" parent="1">
          <mxGeometry x="-355" y="450" width="100" height="60" as="geometry" />
        </mxCell>
        <mxCell id="9qANduLwXeEZ5kH8iVx6-28" value="Basl覺k" style="ellipse;whiteSpace=wrap;html=1;fillColor=#a0522d;fontColor=#ffffff;strokeColor=#6D1F00;" vertex="1" parent="1">
          <mxGeometry x="-405" y="645" width="100" height="60" as="geometry" />
        </mxCell>
        <mxCell id="9qANduLwXeEZ5kH8iVx6-31" style="edgeStyle=orthogonalEdgeStyle;rounded=0;orthogonalLoop=1;jettySize=auto;html=1;entryX=0.98;entryY=0.4;entryDx=0;entryDy=0;entryPerimeter=0;exitX=0;exitY=0.5;exitDx=0;exitDy=0;" edge="1" parent="1" source="9qANduLwXeEZ5kH8iVx6-23" target="9qANduLwXeEZ5kH8iVx6-25">
          <mxGeometry relative="1" as="geometry">
            <mxPoint x="-250" y="560" as="sourcePoint" />
          </mxGeometry>
        </mxCell>
        <mxCell id="9qANduLwXeEZ5kH8iVx6-34" style="edgeStyle=orthogonalEdgeStyle;rounded=0;orthogonalLoop=1;jettySize=auto;html=1;entryX=0.5;entryY=1;entryDx=0;entryDy=0;exitX=1;exitY=0;exitDx=0;exitDy=0;" edge="1" parent="1" source="9qANduLwXeEZ5kH8iVx6-37" target="9qANduLwXeEZ5kH8iVx6-40">
          <mxGeometry relative="1" as="geometry">
            <mxPoint x="590" y="185" as="sourcePoint" />
            <Array as="points">
              <mxPoint x="600" y="228" />
              <mxPoint x="680" y="228" />
              <mxPoint x="680" y="210" />
              <mxPoint x="690" y="210" />
              <mxPoint x="690" y="200" />
            </Array>
          </mxGeometry>
        </mxCell>
        <mxCell id="9qANduLwXeEZ5kH8iVx6-104" style="edgeStyle=orthogonalEdgeStyle;rounded=0;orthogonalLoop=1;jettySize=auto;html=1;exitX=0.5;exitY=1;exitDx=0;exitDy=0;fillColor=#d5e8d4;strokeColor=#82b366;entryX=0.021;entryY=0.355;entryDx=0;entryDy=0;entryPerimeter=0;" edge="1" parent="1" source="9qANduLwXeEZ5kH8iVx6-37" target="9qANduLwXeEZ5kH8iVx6-105">
          <mxGeometry relative="1" as="geometry">
            <mxPoint x="560" y="460" as="targetPoint" />
          </mxGeometry>
        </mxCell>
        <mxCell id="9qANduLwXeEZ5kH8iVx6-37" value="Bolumler" style="rounded=0;whiteSpace=wrap;html=1;fillColor=#fa6800;fontColor=#000000;strokeColor=#C73500;" vertex="1" parent="1">
          <mxGeometry x="430" y="235" width="150" height="90" as="geometry" />
        </mxCell>
        <mxCell id="9qANduLwXeEZ5kH8iVx6-39" value="BolumID" style="ellipse;whiteSpace=wrap;html=1;fillColor=#a0522d;fontColor=#ffffff;strokeColor=#6D1F00;" vertex="1" parent="1">
          <mxGeometry x="520" y="120" width="100" height="60" as="geometry" />
        </mxCell>
        <mxCell id="9qANduLwXeEZ5kH8iVx6-40" value="DepartmentName" style="ellipse;whiteSpace=wrap;html=1;fillColor=#a0522d;fontColor=#ffffff;strokeColor=#6D1F00;" vertex="1" parent="1">
          <mxGeometry x="680" y="140" width="100" height="60" as="geometry" />
        </mxCell>
        <mxCell id="9qANduLwXeEZ5kH8iVx6-41" value="FacultID" style="ellipse;whiteSpace=wrap;html=1;fillColor=#a0522d;fontColor=#ffffff;strokeColor=#6D1F00;" vertex="1" parent="1">
          <mxGeometry x="750" y="240" width="100" height="60" as="geometry" />
        </mxCell>
        <mxCell id="9qANduLwXeEZ5kH8iVx6-45" style="edgeStyle=orthogonalEdgeStyle;rounded=0;orthogonalLoop=1;jettySize=auto;html=1;entryX=0.98;entryY=0.4;entryDx=0;entryDy=0;entryPerimeter=0;exitX=0.75;exitY=0;exitDx=0;exitDy=0;" edge="1" parent="1" source="9qANduLwXeEZ5kH8iVx6-37" target="9qANduLwXeEZ5kH8iVx6-39">
          <mxGeometry relative="1" as="geometry">
            <mxPoint x="450" y="215" as="sourcePoint" />
            <Array as="points">
              <mxPoint x="563" y="210" />
              <mxPoint x="648" y="210" />
            </Array>
          </mxGeometry>
        </mxCell>
        <mxCell id="9qANduLwXeEZ5kH8iVx6-46" style="edgeStyle=orthogonalEdgeStyle;rounded=0;orthogonalLoop=1;jettySize=auto;html=1;exitX=1;exitY=0.25;exitDx=0;exitDy=0;entryX=0;entryY=0.667;entryDx=0;entryDy=0;entryPerimeter=0;" edge="1" parent="1" source="9qANduLwXeEZ5kH8iVx6-37" target="9qANduLwXeEZ5kH8iVx6-41">
          <mxGeometry relative="1" as="geometry">
            <Array as="points">
              <mxPoint x="600" y="300" />
              <mxPoint x="690" y="300" />
              <mxPoint x="690" y="280" />
              <mxPoint x="720" y="280" />
              <mxPoint x="720" y="260" />
              <mxPoint x="740" y="260" />
            </Array>
          </mxGeometry>
        </mxCell>
        <mxCell id="9qANduLwXeEZ5kH8iVx6-52" style="edgeStyle=orthogonalEdgeStyle;rounded=0;orthogonalLoop=1;jettySize=auto;html=1;exitX=0;exitY=1;exitDx=0;exitDy=0;entryX=0.63;entryY=-0.033;entryDx=0;entryDy=0;entryPerimeter=0;" edge="1" parent="1" source="9qANduLwXeEZ5kH8iVx6-23" target="9qANduLwXeEZ5kH8iVx6-24">
          <mxGeometry relative="1" as="geometry">
            <mxPoint x="-30" y="810.02" as="targetPoint" />
          </mxGeometry>
        </mxCell>
        <mxCell id="9qANduLwXeEZ5kH8iVx6-69" value="KursID" style="ellipse;whiteSpace=wrap;html=1;fillColor=#a0522d;fontColor=#ffffff;strokeColor=#6D1F00;" vertex="1" parent="1">
          <mxGeometry x="720" y="525" width="100" height="60" as="geometry" />
        </mxCell>
        <mxCell id="9qANduLwXeEZ5kH8iVx6-70" value="DersAd覺" style="ellipse;whiteSpace=wrap;html=1;fillColor=#a0522d;fontColor=#ffffff;strokeColor=#6D1F00;" vertex="1" parent="1">
          <mxGeometry x="770" y="610" width="100" height="60" as="geometry" />
        </mxCell>
        <mxCell id="9qANduLwXeEZ5kH8iVx6-71" value="Kredi" style="ellipse;whiteSpace=wrap;html=1;fillColor=#a0522d;fontColor=#ffffff;strokeColor=#6D1F00;" vertex="1" parent="1">
          <mxGeometry x="780" y="705" width="100" height="60" as="geometry" />
        </mxCell>
        <mxCell id="9qANduLwXeEZ5kH8iVx6-72" value="Departman" style="ellipse;whiteSpace=wrap;html=1;fillColor=#a0522d;fontColor=#ffffff;strokeColor=#6D1F00;" vertex="1" parent="1">
          <mxGeometry x="710" y="780" width="100" height="60" as="geometry" />
        </mxCell>
        <mxCell id="9qANduLwXeEZ5kH8iVx6-74" style="edgeStyle=orthogonalEdgeStyle;rounded=0;orthogonalLoop=1;jettySize=auto;html=1;exitX=1;exitY=0.5;exitDx=0;exitDy=0;entryX=0.02;entryY=0.283;entryDx=0;entryDy=0;entryPerimeter=0;" edge="1" parent="1" source="9qANduLwXeEZ5kH8iVx6-3" target="9qANduLwXeEZ5kH8iVx6-70">
          <mxGeometry relative="1" as="geometry" />
        </mxCell>
        <mxCell id="9qANduLwXeEZ5kH8iVx6-75" style="edgeStyle=orthogonalEdgeStyle;rounded=0;orthogonalLoop=1;jettySize=auto;html=1;exitX=1;exitY=1;exitDx=0;exitDy=0;entryX=0.3;entryY=0;entryDx=0;entryDy=0;entryPerimeter=0;" edge="1" parent="1" source="9qANduLwXeEZ5kH8iVx6-3" target="9qANduLwXeEZ5kH8iVx6-71">
          <mxGeometry relative="1" as="geometry" />
        </mxCell>
        <mxCell id="9qANduLwXeEZ5kH8iVx6-77" value="Donem" style="ellipse;whiteSpace=wrap;html=1;fillColor=#a0522d;fontColor=#ffffff;strokeColor=#6D1F00;" vertex="1" parent="1">
          <mxGeometry x="610" y="840" width="100" height="60" as="geometry" />
        </mxCell>
        <mxCell id="9qANduLwXeEZ5kH8iVx6-79" value="Grade" style="ellipse;whiteSpace=wrap;html=1;fillColor=#a0522d;fontColor=#ffffff;strokeColor=#6D1F00;" vertex="1" parent="1">
          <mxGeometry x="256" y="980" width="100" height="60" as="geometry" />
        </mxCell>
        <mxCell id="9qANduLwXeEZ5kH8iVx6-80" value="KursID" style="ellipse;whiteSpace=wrap;html=1;fillColor=#a0522d;fontColor=#ffffff;strokeColor=#6D1F00;" vertex="1" parent="1">
          <mxGeometry x="36" y="980" width="100" height="60" as="geometry" />
        </mxCell>
        <mxCell id="9qANduLwXeEZ5kH8iVx6-81" value="Kay覺tID" style="ellipse;whiteSpace=wrap;html=1;fillColor=#a0522d;fontColor=#ffffff;strokeColor=#6D1F00;" vertex="1" parent="1">
          <mxGeometry x="-64" y="930" width="100" height="60" as="geometry" />
        </mxCell>
        <mxCell id="9qANduLwXeEZ5kH8iVx6-82" value="StudentID" style="ellipse;whiteSpace=wrap;html=1;fillColor=#a0522d;fontColor=#ffffff;strokeColor=#6D1F00;" vertex="1" parent="1">
          <mxGeometry x="350" y="910" width="100" height="60" as="geometry" />
        </mxCell>
        <mxCell id="9qANduLwXeEZ5kH8iVx6-83" style="edgeStyle=orthogonalEdgeStyle;rounded=0;orthogonalLoop=1;jettySize=auto;html=1;exitX=0;exitY=1;exitDx=0;exitDy=0;entryX=1;entryY=0;entryDx=0;entryDy=0;" edge="1" parent="1" source="9qANduLwXeEZ5kH8iVx6-13" target="9qANduLwXeEZ5kH8iVx6-81">
          <mxGeometry relative="1" as="geometry">
            <mxPoint x="26" y="920" as="targetPoint" />
          </mxGeometry>
        </mxCell>
        <mxCell id="9qANduLwXeEZ5kH8iVx6-85" style="edgeStyle=orthogonalEdgeStyle;rounded=0;orthogonalLoop=1;jettySize=auto;html=1;exitX=0.75;exitY=1;exitDx=0;exitDy=0;entryX=0.5;entryY=0;entryDx=0;entryDy=0;" edge="1" parent="1" source="9qANduLwXeEZ5kH8iVx6-13" target="9qANduLwXeEZ5kH8iVx6-79">
          <mxGeometry relative="1" as="geometry">
            <mxPoint x="296" y="970" as="targetPoint" />
          </mxGeometry>
        </mxCell>
        <mxCell id="9qANduLwXeEZ5kH8iVx6-87" value="Kay覺tTarihi" style="ellipse;whiteSpace=wrap;html=1;fillColor=#a0522d;fontColor=#ffffff;strokeColor=#6D1F00;" vertex="1" parent="1">
          <mxGeometry x="146" y="990" width="100" height="60" as="geometry" />
        </mxCell>
        <mxCell id="9qANduLwXeEZ5kH8iVx6-89" value="" style="triangle;whiteSpace=wrap;html=1;fillColor=#e3c800;strokeColor=#B09500;fontColor=#000000;" vertex="1" parent="1">
          <mxGeometry x="200" y="280" width="70" height="55" as="geometry" />
        </mxCell>
        <mxCell id="9qANduLwXeEZ5kH8iVx6-91" style="edgeStyle=orthogonalEdgeStyle;rounded=0;orthogonalLoop=1;jettySize=auto;html=1;exitX=1;exitY=0.5;exitDx=0;exitDy=0;entryX=0;entryY=0.611;entryDx=0;entryDy=0;entryPerimeter=0;fillColor=#fff2cc;strokeColor=#d6b656;" edge="1" parent="1" source="9qANduLwXeEZ5kH8iVx6-89" target="9qANduLwXeEZ5kH8iVx6-37">
          <mxGeometry relative="1" as="geometry" />
        </mxCell>
        <mxCell id="9qANduLwXeEZ5kH8iVx6-92" value="1" style="text;html=1;align=center;verticalAlign=middle;whiteSpace=wrap;rounded=0;" vertex="1" parent="1">
          <mxGeometry x="330" y="310" width="60" height="30" as="geometry" />
        </mxCell>
        <mxCell id="9qANduLwXeEZ5kH8iVx6-93" value="M" style="text;html=1;align=center;verticalAlign=middle;whiteSpace=wrap;rounded=0;" vertex="1" parent="1">
          <mxGeometry x="86" y="280" width="60" height="30" as="geometry" />
        </mxCell>
        <mxCell id="9qANduLwXeEZ5kH8iVx6-95" style="edgeStyle=orthogonalEdgeStyle;rounded=0;orthogonalLoop=1;jettySize=auto;html=1;exitX=0.867;exitY=0.472;exitDx=0;exitDy=0;entryX=0;entryY=0.5;entryDx=0;entryDy=0;fillColor=#d5e8d4;strokeColor=#82b366;exitPerimeter=0;" edge="1" parent="1" source="9qANduLwXeEZ5kH8iVx6-94">
          <mxGeometry relative="1" as="geometry">
            <mxPoint x="305.3108891324555" y="495" as="sourcePoint" />
            <mxPoint x="505" y="650" as="targetPoint" />
          </mxGeometry>
        </mxCell>
        <mxCell id="9qANduLwXeEZ5kH8iVx6-119" style="edgeStyle=orthogonalEdgeStyle;rounded=0;orthogonalLoop=1;jettySize=auto;html=1;exitX=0.5;exitY=0;exitDx=0;exitDy=0;entryX=0;entryY=1;entryDx=0;entryDy=0;fillColor=#fff2cc;strokeColor=#d6b656;" edge="1" parent="1" source="9qANduLwXeEZ5kH8iVx6-94" target="9qANduLwXeEZ5kH8iVx6-37">
          <mxGeometry relative="1" as="geometry" />
        </mxCell>
        <mxCell id="9qANduLwXeEZ5kH8iVx6-121" value="M" style="edgeLabel;html=1;align=center;verticalAlign=middle;resizable=0;points=[];" vertex="1" connectable="0" parent="9qANduLwXeEZ5kH8iVx6-119">
          <mxGeometry x="-0.1952" y="4" relative="1" as="geometry">
            <mxPoint as="offset" />
          </mxGeometry>
        </mxCell>
        <mxCell id="9qANduLwXeEZ5kH8iVx6-124" style="edgeStyle=orthogonalEdgeStyle;rounded=0;orthogonalLoop=1;jettySize=auto;html=1;exitX=0;exitY=0.5;exitDx=0;exitDy=0;" edge="1" parent="1" source="9qANduLwXeEZ5kH8iVx6-94" target="9qANduLwXeEZ5kH8iVx6-1">
          <mxGeometry relative="1" as="geometry">
            <Array as="points">
              <mxPoint x="245" y="380" />
              <mxPoint y="380" />
            </Array>
          </mxGeometry>
        </mxCell>
        <mxCell id="9qANduLwXeEZ5kH8iVx6-94" value="" style="triangle;whiteSpace=wrap;html=1;fillColor=#6a00ff;strokeColor=#3700CC;rotation=30;fontColor=#ffffff;" vertex="1" parent="1">
          <mxGeometry x="230" y="480" width="70" height="55" as="geometry" />
        </mxCell>
        <mxCell id="9qANduLwXeEZ5kH8iVx6-97" value="M" style="text;html=1;align=center;verticalAlign=middle;whiteSpace=wrap;rounded=0;" vertex="1" parent="1">
          <mxGeometry x="100" y="395" width="60" height="30" as="geometry" />
        </mxCell>
        <mxCell id="9qANduLwXeEZ5kH8iVx6-98" value="M" style="text;html=1;align=center;verticalAlign=middle;whiteSpace=wrap;rounded=0;" vertex="1" parent="1">
          <mxGeometry x="470" y="555" width="60" height="30" as="geometry" />
        </mxCell>
        <mxCell id="9qANduLwXeEZ5kH8iVx6-101" style="edgeStyle=orthogonalEdgeStyle;rounded=0;orthogonalLoop=1;jettySize=auto;html=1;exitX=1;exitY=0.5;exitDx=0;exitDy=0;entryX=0.5;entryY=1;entryDx=0;entryDy=0;fillColor=#f8cecc;strokeColor=#b85450;" edge="1" parent="1" source="9qANduLwXeEZ5kH8iVx6-100" target="9qANduLwXeEZ5kH8iVx6-1">
          <mxGeometry relative="1" as="geometry" />
        </mxCell>
        <mxCell id="9qANduLwXeEZ5kH8iVx6-100" value="" style="triangle;whiteSpace=wrap;html=1;fillColor=#e51400;strokeColor=#B20000;rotation=-85;fontColor=#ffffff;" vertex="1" parent="1">
          <mxGeometry x="-90" y="425" width="70" height="55" as="geometry" />
        </mxCell>
        <mxCell id="9qANduLwXeEZ5kH8iVx6-102" value="1" style="text;html=1;align=center;verticalAlign=middle;whiteSpace=wrap;rounded=0;" vertex="1" parent="1">
          <mxGeometry x="-130" y="532.5" width="60" height="30" as="geometry" />
        </mxCell>
        <mxCell id="9qANduLwXeEZ5kH8iVx6-103" value="M" style="text;html=1;align=center;verticalAlign=middle;whiteSpace=wrap;rounded=0;" vertex="1" parent="1">
          <mxGeometry x="-80" y="345" width="60" height="30" as="geometry" />
        </mxCell>
        <mxCell id="9qANduLwXeEZ5kH8iVx6-105" value="" style="triangle;whiteSpace=wrap;html=1;fillColor=#60a917;strokeColor=#2D7600;rotation=90;fontColor=#ffffff;" vertex="1" parent="1">
          <mxGeometry x="530" y="470" width="70" height="55" as="geometry" />
        </mxCell>
        <mxCell id="9qANduLwXeEZ5kH8iVx6-106" style="edgeStyle=orthogonalEdgeStyle;rounded=0;orthogonalLoop=1;jettySize=auto;html=1;exitX=1;exitY=0.5;exitDx=0;exitDy=0;entryX=0.627;entryY=0.013;entryDx=0;entryDy=0;entryPerimeter=0;fillColor=#d5e8d4;strokeColor=#82b366;" edge="1" parent="1" source="9qANduLwXeEZ5kH8iVx6-105" target="9qANduLwXeEZ5kH8iVx6-3">
          <mxGeometry relative="1" as="geometry" />
        </mxCell>
        <mxCell id="9qANduLwXeEZ5kH8iVx6-107" value="1" style="text;html=1;align=center;verticalAlign=middle;whiteSpace=wrap;rounded=0;" vertex="1" parent="1">
          <mxGeometry x="530" y="400" width="60" height="30" as="geometry" />
        </mxCell>
        <mxCell id="9qANduLwXeEZ5kH8iVx6-108" value="M" style="text;html=1;align=center;verticalAlign=middle;whiteSpace=wrap;rounded=0;" vertex="1" parent="1">
          <mxGeometry x="560" y="555" width="60" height="30" as="geometry" />
        </mxCell>
        <mxCell id="9qANduLwXeEZ5kH8iVx6-111" style="edgeStyle=orthogonalEdgeStyle;rounded=0;orthogonalLoop=1;jettySize=auto;html=1;exitX=1;exitY=0.5;exitDx=0;exitDy=0;entryX=0;entryY=0.75;entryDx=0;entryDy=0;fillColor=#d5e8d4;strokeColor=#82b366;" edge="1" parent="1" source="9qANduLwXeEZ5kH8iVx6-109" target="9qANduLwXeEZ5kH8iVx6-3">
          <mxGeometry relative="1" as="geometry" />
        </mxCell>
        <mxCell id="9qANduLwXeEZ5kH8iVx6-109" value="" style="triangle;whiteSpace=wrap;html=1;fillColor=#60a917;strokeColor=#2D7600;fontColor=#ffffff;" vertex="1" parent="1">
          <mxGeometry x="170" y="650" width="70" height="55" as="geometry" />
        </mxCell>
        <mxCell id="9qANduLwXeEZ5kH8iVx6-113" value="1" style="text;html=1;align=center;verticalAlign=middle;whiteSpace=wrap;rounded=0;" vertex="1" parent="1">
          <mxGeometry x="46" y="650" width="60" height="30" as="geometry" />
        </mxCell>
        <mxCell id="9qANduLwXeEZ5kH8iVx6-114" value="1" style="text;html=1;align=center;verticalAlign=middle;whiteSpace=wrap;rounded=0;" vertex="1" parent="1">
          <mxGeometry x="296" y="660" width="60" height="30" as="geometry" />
        </mxCell>
        <mxCell id="9qANduLwXeEZ5kH8iVx6-120" value="1" style="text;html=1;align=center;verticalAlign=middle;whiteSpace=wrap;rounded=0;" vertex="1" parent="1">
          <mxGeometry x="26" y="590" width="60" height="30" as="geometry" />
        </mxCell>
        <mxCell id="9qANduLwXeEZ5kH8iVx6-125" value="1" style="text;html=1;align=center;verticalAlign=middle;resizable=0;points=[];autosize=1;strokeColor=none;fillColor=none;" vertex="1" parent="1">
          <mxGeometry x="85" y="358" width="30" height="30" as="geometry" />
        </mxCell>
      </root>
    </mxGraphModel>
  </diagram>
</mxfile>
